<svg xmlns="http://www.w3.org/2000/svg" viewBox="0 0 658.43 717.1"><defs><style>.cls-1{isolation:isolate;}.cls-2{fill:#f3e818;}.cls-3{fill:#ddc61a;}.cls-4{fill:#d92029;}.cls-5{fill:#9c1a38;}</style></defs><g id="Rectángulo_redondeado_2" data-name="Rectángulo redondeado 2" class="cls-1"><g id="Rectángulo_redondeado_2-2" data-name="Rectángulo redondeado 2"><path class="cls-2" d="M508.68,736.88a86.54,86.54,0,0,1-9.37-.52L194.76,702.67c-21.85-2.42-41-12.93-54.07-29.61a72.07,72.07,0,0,1-14.78-54.47l67.88-498.3c5.26-38.67,40.06-67.83,80.93-67.83a83.94,83.94,0,0,1,9.37.52L588.64,86.66c21.86,2.42,41.06,12.94,54.07,29.62a72.1,72.1,0,0,1,14.79,54.47l-67.88,498.3c-5.27,38.66-40.07,67.83-80.94,67.83Z" transform="translate(-108.89 -36.12)"/><path class="cls-3" d="M274.73,68.8a68.59,68.59,0,0,1,7.57.42L586.85,102.9c17.43,1.93,32.7,10.25,43,23.43a55.88,55.88,0,0,1,11.48,42.21l-67.88,498.3a60.36,60.36,0,0,1-21.43,38,67.56,67.56,0,0,1-43.32,15.67,71.12,71.12,0,0,1-7.57-.42L196.56,686.43c-17.44-1.93-32.7-10.25-43-23.43a55.87,55.87,0,0,1-11.47-42.21L210,122.49a60.34,60.34,0,0,1,21.42-38A67.53,67.53,0,0,1,274.73,68.8m0-32.68c-48.4,0-90.71,34.78-97.14,82l-67.87,498.3c-6.92,50.78,30.35,96.68,83.24,102.53L497.52,752.6a102.49,102.49,0,0,0,11.16.62c48.39,0,90.7-34.79,97.13-82L673.69,173c6.91-50.77-30.36-96.68-83.25-102.53L285.89,36.74a100.31,100.31,0,0,0-11.16-.62Z" transform="translate(-108.89 -36.12)"/></g></g><g id="Rectángulo_redondeado_2-3" data-name="Rectángulo redondeado 2" class="cls-1"><g id="Rectángulo_redondeado_2-4" data-name="Rectángulo redondeado 2"><path class="cls-4" d="M618,679.68a75.71,75.71,0,0,1-8.24-.46l-274-30.29c-19.21-2.12-36.09-11.36-47.53-26a63.26,63.26,0,0,1-13-47.81l61.13-448.52c4.64-34,35.26-59.65,71.23-59.65a75.7,75.7,0,0,1,8.24.45L689.89,97.67c19.21,2.12,36.09,11.36,47.53,26a63.26,63.26,0,0,1,13,47.81L689.26,620C684.62,654,654,679.68,618,679.68Z" transform="translate(-108.89 -36.12)"/><path class="cls-5" d="M407.6,83.27a60.6,60.6,0,0,1,6.45.35l274,30.29c14.8,1.64,27.74,8.68,36.44,19.83a47,47,0,0,1,9.67,35.55L673.07,617.82A51.14,51.14,0,0,1,654.92,650a57.72,57.72,0,0,1-43.34,13l-274-30.29c-14.8-1.63-27.74-8.68-36.45-19.83a47.07,47.07,0,0,1-9.66-35.55l61.13-448.53a51.15,51.15,0,0,1,18.15-32.17A57.49,57.49,0,0,1,407.6,83.27m0-32.68c-43.55,0-81.63,31.31-87.42,73.78L259.05,572.9c-6.23,45.7,27.3,87,74.9,92.27l274,30.29a92,92,0,0,0,10,.56c43.55,0,81.63-31.32,87.42-73.79l61.13-448.52c6.23-45.71-27.3-87-74.9-92.28l-274-30.29a92,92,0,0,0-10-.55Z" transform="translate(-108.89 -36.12)"/></g></g></svg>