<svg xmlns="http://www.w3.org/2000/svg" viewBox="0 0 499.01 751.02"><defs><style>.cls-1{isolation:isolate;}.cls-2{fill:#f3e818;}.cls-3{fill:#ddc61a;}</style></defs><g id="Rect치ngulo_redondeado_2" data-name="Rect치ngulo redondeado 2" class="cls-1"><g id="Rect치ngulo_redondeado_2-2" data-name="Rect치ngulo redondeado 2"><path class="cls-2" d="M361.75,856.68a76.09,76.09,0,0,1-55.3-23.94,85.26,85.26,0,0,1-23.37-59.08L281.33,228.2c-.15-46.58,35.54-85,79.56-85.59l305.27-4.26h1.08a76.1,76.1,0,0,1,55.3,23.95c15,15.66,23.3,36.64,23.38,59.07l1.74,545.46c.15,46.58-35.54,85-79.56,85.59l-305.27,4.26Z" transform="translate(-264.99 -122)"/><path class="cls-3" d="M667.24,154.68a59.91,59.91,0,0,1,43.5,18.91,69,69,0,0,1,18.84,47.82l1.74,545.46c.12,37.67-28.34,68.71-63.45,69.2l-305.29,4.27h-.83a59.87,59.87,0,0,1-43.5-18.91,68.9,68.9,0,0,1-18.83-47.82l-1.75-545.46c-.12-37.67,28.34-68.71,63.45-69.2l305.29-4.26h.83m0-32.68h-1.3l-305.28,4.26c-53,.74-95.85,46.4-95.67,102l1.75,545.46c.17,55.13,42.59,99.31,95,99.31h1.31l305.27-4.26c53-.74,95.85-46.4,95.67-102l-1.74-545.46c-.18-55.12-42.6-99.31-95-99.31Z" transform="translate(-264.99 -122)"/></g></g></svg>