<svg xmlns="http://www.w3.org/2000/svg" viewBox="0 0 672.37 775.02"><defs><style>.cls-1{isolation:isolate;}.cls-2{fill:#f3e818;}.cls-3{fill:#ddc61a;}.cls-4{fill:#d92029;}.cls-5{fill:#9c1a38;}</style></defs><g id="Rectángulo_redondeado_2" data-name="Rectángulo redondeado 2" class="cls-1"><g id="Rectángulo_redondeado_2-2" data-name="Rectángulo redondeado 2"><path class="cls-2" d="M294.15,767.67c-36.08,0-66.44-23.79-73.83-57.84L113.67,218.36c-9-41.41,18.76-83.64,61.84-94.14L473.22,51.71a83,83,0,0,1,19.63-2.38c36.08,0,66.44,23.79,73.82,57.85L673.32,598.64c9,41.42-18.76,83.65-61.84,94.14L313.77,765.29A83,83,0,0,1,294.15,767.67Z" transform="translate(-95.64 -8.99)"/><path class="cls-3" d="M492.85,65.67c28.32,0,52.11,18.5,57.86,45L657.35,602.11c7.13,32.83-15.19,66.38-49.74,74.8l-297.7,72.5a66.32,66.32,0,0,1-15.77,1.92c-28.32,0-52.11-18.49-57.86-45L129.64,214.89c-7.12-32.82,15.19-66.38,49.74-74.79l297.7-72.51a66.9,66.9,0,0,1,15.77-1.92m0-32.68a99,99,0,0,0-23.5,2.85L171.64,108.35c-51.7,12.59-84.8,63.4-73.94,113.47L204.35,713.29c9.2,42.43,47,70.72,89.79,70.72a99.44,99.44,0,0,0,23.5-2.84l297.71-72.51c51.7-12.6,84.81-63.4,73.94-113.48L582.64,103.71c-9.2-42.42-47-70.72-89.79-70.72Z" transform="translate(-95.64 -8.99)"/></g></g><g id="Rectángulo_redondeado_2-3" data-name="Rectángulo redondeado 2" class="cls-1"><g id="Rectángulo_redondeado_2-4" data-name="Rectángulo redondeado 2"><path class="cls-4" d="M410.6,668.67c-31.69,0-58.35-20.88-64.83-50.78l-96-442.39c-7.9-36.42,16.52-73.56,54.43-82.8L572.12,27.43a73.12,73.12,0,0,1,17.27-2.1c31.69,0,58.35,20.89,64.83,50.79l96,442.38c7.9,36.42-16.52,73.57-54.43,82.81L427.87,666.57A73.12,73.12,0,0,1,410.6,668.67Z" transform="translate(-95.64 -8.99)"/><path class="cls-5" d="M589.39,41.67c23.93,0,44,15.59,48.86,37.91l96,442.38c2.87,13.21.17,27-7.6,39a57.52,57.52,0,0,1-34.73,24.5L424,650.7a56.79,56.79,0,0,1-13.4,1.63c-23.93,0-44-15.59-48.86-37.91L265.78,172c-2.87-13.2-.17-27,7.6-39a57.49,57.49,0,0,1,34.73-24.51L576,43.31a56.29,56.29,0,0,1,13.4-1.64m0-32.68a88.87,88.87,0,0,0-21.14,2.57L300.37,76.82C253.85,88.16,224.06,133.89,233.84,179l96,442.38c8.28,38.19,42.31,63.66,80.8,63.66a89.37,89.37,0,0,0,21.14-2.56l267.88-65.27c46.52-11.33,76.31-57.07,66.53-102.14l-96-442.39C661.91,34.46,627.88,9,589.39,9Z" transform="translate(-95.64 -8.99)"/></g></g></svg>