<svg xmlns="http://www.w3.org/2000/svg" viewBox="0 0 595.72 751.02"><defs><style>.cls-1{isolation:isolate;}.cls-2{fill:#d92029;}.cls-3{fill:#9c1a38;}</style></defs><g id="Rect치ngulo_redondeado_2" data-name="Rect치ngulo redondeado 2" class="cls-1"><g id="Rect치ngulo_redondeado_2-2" data-name="Rect치ngulo redondeado 2"><path class="cls-2" d="M311.15,752.67c-36.08,0-66.44-23.79-73.83-57.84L130.67,203.36c-9-41.41,18.76-83.64,61.84-94.14L490.22,36.71a83,83,0,0,1,19.63-2.38c36.08,0,66.44,23.79,73.82,57.85L690.32,583.64c9,41.42-18.76,83.65-61.84,94.14L330.77,750.29A83,83,0,0,1,311.15,752.67Z" transform="translate(-112.64 -17.99)"/><path class="cls-3" d="M509.85,50.67c28.32,0,52.11,18.5,57.86,45L674.35,587.11c7.13,32.83-15.19,66.38-49.74,74.79l-297.7,72.51a66.32,66.32,0,0,1-15.77,1.92c-28.32,0-52.11-18.49-57.86-45L146.64,199.89c-7.12-32.82,15.19-66.38,49.74-74.79l297.7-72.51a66.9,66.9,0,0,1,15.77-1.92m0-32.68a99,99,0,0,0-23.5,2.85L188.64,93.35c-51.7,12.59-84.8,63.4-73.94,113.47L221.35,698.29c9.2,42.43,47,70.72,89.79,70.72a99.44,99.44,0,0,0,23.5-2.84l297.71-72.51c51.7-12.6,84.81-63.4,73.94-113.48L599.64,88.71c-9.2-42.42-47-70.72-89.79-70.72Z" transform="translate(-112.64 -17.99)"/></g></g></svg>