<svg xmlns="http://www.w3.org/2000/svg" viewBox="0 0 565.62 717.1"><defs><style>.cls-1{isolation:isolate;}.cls-2{fill:#d92029;}.cls-3{fill:#9c1a38;}</style></defs><g id="Rect치ngulo_redondeado_2" data-name="Rect치ngulo redondeado 2" class="cls-1"><g id="Rect치ngulo_redondeado_2-2" data-name="Rect치ngulo redondeado 2"><path class="cls-2" d="M527.47,735.71a86.54,86.54,0,0,1-9.37-.52L213.55,701.5c-21.85-2.41-41.05-12.93-54.07-29.61a72.06,72.06,0,0,1-14.78-54.47l67.88-498.3c5.27-38.67,40.06-67.83,80.94-67.83a86.54,86.54,0,0,1,9.37.52L607.44,85.5c21.85,2.41,41,12.93,54.07,29.61a72.06,72.06,0,0,1,14.78,54.47l-67.88,498.3c-5.27,38.67-40.06,67.83-80.93,67.83Z" transform="translate(-127.68 -34.95)"/><path class="cls-3" d="M293.52,67.63a68.59,68.59,0,0,1,7.57.42l304.55,33.69c17.43,1.93,32.7,10.25,43,23.42a55.84,55.84,0,0,1,11.48,42.21L592.22,665.68a60.37,60.37,0,0,1-21.42,38,67.61,67.61,0,0,1-43.33,15.67,68.72,68.72,0,0,1-7.57-.42L215.35,685.26c-17.44-1.93-32.7-10.25-43-23.42a55.87,55.87,0,0,1-11.47-42.21l67.88-498.31a60.34,60.34,0,0,1,21.43-38,67.56,67.56,0,0,1,43.32-15.67m0-32.68c-48.39,0-90.71,34.79-97.13,82l-67.88,498.3c-6.92,50.78,30.35,96.68,83.25,102.54l304.55,33.68a100.17,100.17,0,0,0,11.16.62c48.39,0,90.71-34.79,97.13-82l67.88-498.3C699.4,121,662.13,75.11,609.23,69.25L304.68,35.57A100.17,100.17,0,0,0,293.52,35Z" transform="translate(-127.68 -34.95)"/></g></g></svg>